<svg viewBox="0 0 128 128" xmlns="http://www.w3.org/2000/svg"><rect fill="#ea4335" height="52" rx="4" width="96" x="16" y="64"/><rect fill="#d93025" height="20" rx="4" width="104" x="12" y="48"/><g fill="#fbbc04"><path d="m56 48h16v68h-16z"/><path d="m12 54h104v10h-104z"/><ellipse cx="64" cy="40" rx="10" ry="8"/><ellipse cx="44" cy="32" rx="16" ry="14"/></g><ellipse cx="44" cy="32" fill="#ea4335" rx="10" ry="8"/><ellipse cx="84" cy="32" fill="#fbbc04" rx="16" ry="14"/><ellipse cx="84" cy="32" fill="#ea4335" rx="10" ry="8"/><path d="m54 40q-4 10-14 14 6-6 8-14z" fill="#fbbc04"/><path d="m74 40q4 10 14 14-6-6-8-14z" fill="#fbbc04"/></svg>